<svg width="39" height="35" viewBox="0 0 39 35" fill="none" xmlns="http://www.w3.org/2000/svg">
<path d="M36.0631 0.00216865C35.399 0.0256067 34.7896 0.377169 34.4381 0.939669L15.6256 29.7209L3.43806 19.1897C2.91462 18.6467 2.12947 18.4436 1.40681 18.6701C0.688061 18.8928 0.152905 19.5022 0.0279053 20.2444C-0.0970947 20.9904 0.203686 21.7404 0.813061 22.1897L14.7506 34.2522C15.1881 34.6233 15.7662 34.7873 16.3326 34.7053C16.9029 34.6194 17.4068 34.2951 17.7193 33.8147L37.8131 3.12717C38.2427 2.49826 38.2779 1.68576 37.9068 1.0217C37.5357 0.361544 36.8209 -0.0329873 36.0631 0.00216865Z" fill="white"/>
</svg>
