<svg width="32" height="32" viewBox="0 0 32 32" fill="none" xmlns="http://www.w3.org/2000/svg">
<path d="M15.0357 0.103503C16.2686 0.76506 16.2836 2.36633 15.0582 2.99781C14.7876 3.13313 14.547 3.14065 9.73572 3.14065C6.11971 3.14065 4.59362 3.1632 4.33802 3.23086C3.85688 3.35114 3.33065 3.87738 3.21036 4.35851C3.08256 4.8622 3.08256 27.1296 3.21036 27.6333C3.33065 28.1144 3.85688 28.6406 4.33802 28.7609C4.59362 28.8286 6.11971 28.8511 9.73572 28.8511C14.547 28.8511 14.7876 28.8587 15.0582 28.994C16.2761 29.6179 16.2761 31.2418 15.0507 31.8657C14.7801 32.0086 14.5846 32.0086 9.2621 31.9935C3.79674 31.971 3.75915 31.971 3.2705 31.8056C1.8647 31.3245 0.759597 30.2419 0.19577 28.791L0.000309927 28.2873V15.9959V3.70448L0.19577 3.20079C0.752079 1.77243 1.75193 0.772578 3.18029 0.216269L3.68398 0.0208089L9.24707 0.00577348C14.2163 -0.0092619 14.8327 -0.00174421 15.0357 0.103503Z" fill="#D9D9D9"/>
<path d="M24.6212 8.10957C25.0647 8.30503 31.6126 14.8229 31.8381 15.289C32.0186 15.6573 32.0336 16.2663 31.8682 16.6572C31.793 16.8451 30.6804 18.0104 28.395 20.3033C24.8467 23.8591 24.6287 24.0396 23.9897 24.0396C23.6514 24.0396 22.9973 23.7689 22.8019 23.5434C22.5839 23.2953 22.3658 22.739 22.3658 22.4232C22.3658 21.8143 22.5763 21.5437 24.6061 19.5064L26.5306 17.5743H17.0659C8.00706 17.5743 7.57855 17.5668 7.29288 17.4315C6.05998 16.8602 6.04494 15.1912 7.27032 14.5597C7.54096 14.4244 7.84919 14.4169 17.0433 14.4169H26.5306L24.6061 12.4773C22.5763 10.4476 22.3734 10.1769 22.3658 9.568C22.3658 9.23722 22.6365 8.58318 22.862 8.38772C23.1101 8.16971 23.6664 7.9517 23.9821 7.9517C24.1475 7.9517 24.4332 8.02687 24.6212 8.10957Z" fill="#D9D9D9"/>
</svg>
