<svg width="33" height="35" viewBox="0 0 33 35" fill="none" xmlns="http://www.w3.org/2000/svg">
<path d="M13.8711 0.052938C12.5019 0.288499 11.3536 1.12032 10.7205 2.32021C10.404 2.9312 10.3156 3.24037 10.2346 4.04276C10.1978 4.44026 10.1169 4.77888 10.0359 4.92611C9.68255 5.52237 9.01267 5.65488 8.26182 5.27945C7.57722 4.93347 7.03248 4.80833 6.25955 4.80097C4.94924 4.80097 3.75671 5.35306 2.93225 6.34684C2.5421 6.82532 0.407325 10.5501 0.215931 11.0949C-0.00490752 11.7353 -0.0564365 12.8689 0.105512 13.5094C0.370518 14.5547 1.11401 15.5705 2.0857 16.2257C2.5789 16.5569 2.74085 16.844 2.70405 17.3225C2.6746 17.7863 2.52738 18.0218 2.07834 18.3237C1.12137 18.9641 0.377879 19.9726 0.112873 20.9884C-0.115327 21.8865 0.00981504 23.1085 0.422047 23.933C0.863724 24.8163 2.70405 27.9228 2.96905 28.2246C3.83768 29.2331 4.94924 29.741 6.25955 29.741C7.03248 29.7336 7.57722 29.6085 8.26182 29.2625C9.01267 28.8871 9.68255 29.0196 10.0359 29.6159C10.1169 29.7631 10.1978 30.1017 10.2346 30.4992C10.3156 31.3016 10.404 31.6108 10.7205 32.2218C11.2431 33.2229 12.0529 33.9075 13.1792 34.305L13.8049 34.5332H16.4181C19.3111 34.5332 19.4657 34.5185 20.3932 34.0694C21.3649 33.5983 22.2998 32.4868 22.5942 31.4415C22.6458 31.2795 22.712 30.8526 22.7488 30.4992C22.7856 30.1017 22.8666 29.7631 22.9476 29.6159C23.3009 29.0196 23.9708 28.8871 24.7217 29.2625C25.4063 29.6085 25.951 29.7336 26.7239 29.741C27.9091 29.741 28.9323 29.3214 29.7641 28.4896C30.1396 28.1068 30.434 27.6725 31.3026 26.1634C32.5909 23.9403 32.716 23.6974 32.8632 23.1158C33.0105 22.5417 33.0178 21.5553 32.8706 20.9958C32.6056 19.9799 31.8547 18.9567 30.8978 18.3163C30.4561 18.0218 30.2573 17.6979 30.2573 17.271C30.2573 16.844 30.4561 16.5201 30.8978 16.2257C31.8695 15.5705 32.613 14.5547 32.878 13.5094C33.0399 12.8689 32.9884 11.7353 32.7675 11.0949C32.6792 10.8372 32.0682 9.69622 31.4131 8.56258C30.0733 6.25114 29.7052 5.79474 28.7998 5.32362C28.0563 4.93347 27.5337 4.80097 26.7239 4.80097C25.951 4.80833 25.4063 4.93347 24.7217 5.27945C23.9708 5.65488 23.3009 5.52237 22.9476 4.92611C22.8666 4.77888 22.7856 4.44026 22.7488 4.04276C22.6679 3.23301 22.5795 2.93856 22.2483 2.29077C21.8949 1.61353 21.1146 0.825873 20.4668 0.501976C19.5467 0.0382154 19.4215 0.0234929 16.7126 0.001409C15.3581 -0.00595229 14.0772 0.0161316 13.8711 0.052938ZM18.9651 3.27718C19.4142 3.4833 19.5835 3.80719 19.6571 4.60957C19.7749 5.83891 20.1871 6.70754 21.0484 7.50256C22.3955 8.73926 24.2137 8.9969 25.9142 8.18716C26.216 8.03993 26.5693 7.92215 26.7092 7.92215C27.0184 7.92215 27.3791 8.07674 27.5778 8.29758C27.7987 8.54786 29.6758 11.8016 29.7936 12.1475C29.9997 12.7291 29.7862 13.1487 29.0059 13.6934C28.0342 14.378 27.438 15.2761 27.2098 16.4024C27.0625 17.1164 27.0625 17.4256 27.2098 18.1323C27.4306 19.2144 27.9901 20.0977 28.8293 20.7013C29.1016 20.9001 29.4182 21.1504 29.5286 21.2534C29.7862 21.4964 29.9187 21.9675 29.823 22.3135C29.742 22.6006 27.8208 25.9794 27.5778 26.2444C27.3791 26.4652 27.0184 26.6198 26.7092 26.6198C26.5693 26.6198 26.216 26.502 25.9142 26.3548C24.2137 25.5451 22.3955 25.8027 21.0484 27.0394C20.1871 27.8344 19.7749 28.7031 19.6571 29.9324C19.5835 30.7274 19.4215 31.0292 18.9651 31.2501C18.6707 31.3973 18.5308 31.4047 16.4917 31.4047C14.4527 31.4047 14.3128 31.3973 14.0183 31.2501C13.5619 31.0292 13.4 30.7274 13.3264 29.9324C13.2086 28.7031 12.7964 27.8344 11.9351 27.0394C10.588 25.8027 8.76975 25.5451 7.06929 26.3548C6.76748 26.502 6.41413 26.6198 6.27427 26.6198C5.9651 26.6198 5.60439 26.4652 5.40564 26.2444C5.16272 25.9794 3.24142 22.6006 3.16045 22.3135C3.06475 21.9675 3.19725 21.4964 3.4549 21.2534C3.56532 21.1504 3.88185 20.9001 4.15422 20.7013C4.99341 20.0977 5.55286 19.2144 5.7737 18.1323C5.92093 17.4256 5.92093 17.1164 5.7737 16.4024C5.5455 15.2761 4.94924 14.378 3.97755 13.6934C3.2267 13.1708 3.00586 12.7585 3.16045 12.2064C3.24142 11.9267 5.17744 8.54786 5.40564 8.29758C5.60439 8.07674 5.9651 7.92215 6.27427 7.92215C6.41413 7.92215 6.76748 8.03993 7.06929 8.18716C8.00417 8.6362 8.9685 8.7687 9.8813 8.57731C10.5585 8.43744 11.4419 7.97368 11.9425 7.50256C12.8037 6.68546 13.2086 5.83155 13.3264 4.60957C13.4 3.80719 13.5693 3.4833 14.0183 3.27718C14.2907 3.15204 14.5336 3.13732 16.4917 3.13732C18.4498 3.13732 18.6928 3.15204 18.9651 3.27718Z" fill="#D9D9D9"/>
<path d="M15.5939 9.46796C14.4309 9.61518 13.0911 10.1157 12.0973 10.7709C11.2213 11.3451 10.2644 12.3757 9.70492 13.34C8.586 15.2613 8.35044 17.6611 9.06448 19.7885C9.54297 21.2239 10.5441 22.6005 11.7808 23.5427C12.3991 24.0139 13.7168 24.6617 14.4677 24.853C17.1619 25.545 19.8709 24.853 21.8584 22.9759C22.6093 22.2692 23.0657 21.6435 23.5294 20.6939C24.5085 18.6769 24.6042 16.4759 23.8018 14.4442C23.2276 12.994 22.2706 11.7573 21.0192 10.8519C20.5775 10.5353 19.4733 9.97588 18.9581 9.81394C17.9716 9.4974 16.5436 9.35017 15.5939 9.46796ZM17.4858 12.6701C19.5985 13.1118 21.2032 15.092 21.2032 17.2709C21.2032 19.8326 19.0537 21.9821 16.492 21.9821C15.2553 21.9821 14.0775 21.4816 13.1721 20.5835C11.317 18.7432 11.3244 15.806 13.1721 13.951C14.3204 12.81 15.8958 12.3389 17.4858 12.6701Z" fill="#D9D9D9"/>
</svg>
